<?xml version="1.0" encoding="UTF-8" standalone="no"?>
<!-- Created with Inkscape (http://www.inkscape.org/) -->

<svg
   width="210mm"
   height="297mm"
   viewBox="0 0 210 297"
   version="1.1"
   id="svg5"
   xml:space="preserve"
   inkscape:export-filename="background.png"
   inkscape:export-xdpi="96"
   inkscape:export-ydpi="96"
   inkscape:version="1.2.2 (b0a8486541, 2022-12-01)"
   sodipodi:docname="drawing.svg"
   xmlns:inkscape="http://www.inkscape.org/namespaces/inkscape"
   xmlns:sodipodi="http://sodipodi.sourceforge.net/DTD/sodipodi-0.dtd"
   xmlns="http://www.w3.org/2000/svg"
   xmlns:svg="http://www.w3.org/2000/svg"><sodipodi:namedview
     id="namedview7"
     pagecolor="#ffffff"
     bordercolor="#000000"
     borderopacity="0.25"
     inkscape:showpageshadow="2"
     inkscape:pageopacity="0.0"
     inkscape:pagecheckerboard="0"
     inkscape:deskcolor="#d1d1d1"
     inkscape:document-units="mm"
     showgrid="false"
     inkscape:zoom="0.68506594"
     inkscape:cx="278.80528"
     inkscape:cy="426.9662"
     inkscape:window-width="1846"
     inkscape:window-height="882"
     inkscape:window-x="1626"
     inkscape:window-y="42"
     inkscape:window-maximized="0"
     inkscape:current-layer="layer1" /><defs
     id="defs2" /><g
     inkscape:label="Layer 1"
     inkscape:groupmode="layer"
     id="layer1"><g
       style="fill:none"
       id="g18"
       transform="matrix(0.26458333,0,0,0.26458333,-76.180102,3.1823433)"><path
         d="M 0,0 H 1440 V 916 H 146 C 65.3664,916 0,850.634 0,770 Z"
         fill="#ffffff"
         id="path9" /></g><g
       style="fill:none"
       id="g172"
       transform="matrix(0.26458333,0,0,0.26458333,-67.510462,31.328219)"><path
         d="m 1383.58,130.028 c -8.63,-15.323 -20.75,-28.397 -35.37,-38.165 -14.63,-9.7677 -31.35,-15.9542 -48.81,-18.0584 -17.46,-2.1043 -35.17,-0.0672 -51.7,5.9464 -16.52,6.0135 -31.4,15.8343 -43.43,28.667 -12.02,12.833 -20.86,28.318 -25.78,45.2 -4.93,16.882 -5.81,34.688 -2.58,51.975 3.23,17.287 10.49,33.569 21.19,47.529 10.7,13.959 24.53,25.204 40.38,32.823 l 20.88,-43.437 c -9.03,-4.34 -16.91,-10.746 -23.01,-18.699 -6.09,-7.953 -10.23,-17.229 -12.07,-27.077 -1.84,-9.849 -1.34,-19.992 1.47,-29.61 2.81,-9.618 7.84,-18.439 14.69,-25.75 6.85,-7.311 15.33,-12.906 24.74,-16.332 9.42,-3.426 19.51,-4.587 29.45,-3.388 9.95,1.199 19.48,4.723 27.81,10.288 8.33,5.565 15.23,13.013 20.15,21.742 z"
         fill="#6070ff"
         id="path124" /><path
         d="m 246.234,705.783 c 2.322,-2.766 3.961,-6.04 4.782,-9.557 0.822,-3.517 0.804,-7.178 -0.053,-10.687 -0.856,-3.508 -2.527,-6.766 -4.876,-9.508 -2.35,-2.743 -5.312,-4.894 -8.648,-6.279 -3.335,-1.385 -6.95,-1.965 -10.551,-1.693 -3.601,0.272 -7.088,1.388 -10.178,3.258 -3.089,1.87 -5.695,4.441 -7.607,7.506 -1.911,3.064 -3.073,6.535 -3.393,10.133 l 9.858,0.877 c 0.182,-2.05 0.844,-4.028 1.933,-5.773 1.089,-1.746 2.574,-3.211 4.334,-4.276 1.76,-1.066 3.746,-1.702 5.798,-1.856 2.052,-0.155 4.111,0.175 6.011,0.964 1.9,0.789 3.588,2.015 4.927,3.577 1.338,1.563 2.29,3.418 2.778,5.417 0.488,1.999 0.498,4.085 0.03,6.088 -0.468,2.004 -1.402,3.869 -2.725,5.445 z"
         fill="#ebebff"
         id="path126" /><rect
         x="1112"
         y="102"
         width="204"
         height="47"
         transform="rotate(-30,1112,102)"
         fill="#ebebff"
         id="rect128" /><rect
         x="697.44"
         y="631"
         width="161.407"
         height="28.875"
         transform="rotate(23.34,697.44,631)"
         fill="#ebebff"
         id="rect130" /><rect
         width="56.012402"
         height="10.0203"
         transform="matrix(0.977401,-0.211395,-0.211395,-0.977401,659.253,142.572)"
         fill="#6070ff"
         id="rect132"
         x="0"
         y="0" /><rect
         x="0.60156202"
         y="99.923203"
         width="108.669"
         height="19.4403"
         transform="rotate(-46.1415,0.601562,99.9232)"
         fill="#ebebff"
         id="rect134" /><circle
         cx="828.5"
         cy="662.5"
         r="23.5"
         fill="#6070ff"
         id="circle136" /><circle
         cx="685.5"
         cy="149.5"
         r="11.5"
         fill="#ebebff"
         id="circle138" /><circle
         cx="1177.5"
         cy="562.5"
         r="37"
         fill="#ffffff"
         stroke="#ebebff"
         id="circle140" /><circle
         r="19"
         transform="matrix(1,0,0,-1,950.5,53.5)"
         fill="#ffffff"
         stroke="#ebebff"
         id="circle142"
         cx="0"
         cy="0" /><circle
         cx="352.5"
         cy="53.5"
         r="7"
         fill="#ffffff"
         stroke="#ebebff"
         id="circle144" /><circle
         r="11"
         transform="matrix(1,0,0,-1,50.5,404.5)"
         fill="#ffffff"
         stroke="#ebebff"
         id="circle146"
         cx="0"
         cy="0" /><path
         d="m 46.9842,73.0741 c -4.1906,9.8151 -4.3106,20.8929 -0.3334,30.7959 3.9771,9.904 11.7255,17.822 21.5406,22.013 9.8151,4.19 20.8929,4.31 30.7964,0.333 C 108.891,122.239 116.809,114.49 121,104.675 Z"
         fill="#6070ff"
         id="path148" /><path
         d="m 221.155,650 c -0.334,4.881 1.284,9.695 4.499,13.383 3.216,3.688 7.764,5.948 12.645,6.283 4.882,0.334 9.696,-1.285 13.384,-4.5 3.688,-3.215 5.947,-7.763 6.282,-12.645 z"
         fill="#6070ff"
         id="path150" /></g></g></svg>
